{
  "source": "C:\\Users\\Peter\\Desktop\\stuff\\MIUN\\quantitative_research\\video_compression\\videos\\BVI-HD\\Typing_1920x1080_60fps.mp4",
  "output": "C:\\Users\\Peter\\Desktop\\stuff\\MIUN\\quantitative_research\\video_compression\\compressed_videos\\BVI-HD\\vp9\\12\\Typing_1920x1080_60fps_vp9.webm",
  "codec": "vp9",
  "ok": "Input #0, mov,mp4,m4a,3gp,3g2,mj2, from 'C:\\Users\\Peter\\Desktop\\stuff\\MIUN\\quantitative_research\\video_compression\\videos\\BVI-HD\\Typing_1920x1080_60fps.mp4':\n  Metadata:\n    major_brand     : isom\n    minor_version   : 512\n    compatible_brands: isomiso2avc1mp41\n    encoder         : Lavf54.28.101\n  Duration: 00:00:05.00, start: 0.000000, bitrate: 203453 kb/s\n  Stream #0:0[0x1](und): Video: h264 (High 4:4:4 Predictive) (avc1 / 0x31637661), yuv420p(progressive), 1920x1080, 203448 kb/s, 60 fps, 60 tbr, 60 tbn (default)\n    Metadata:\n      handler_name    : VideoHandler\n      vendor_id       : [0][0][0][0]\n[out#0/webm @ 000001e2923d0d80] Codec AVOption b:a (set bitrate (in bits/s)) has not been used for any stream. The most likely reason is either wrong type (e.g. a video option with no video streams) or that it is a private option of some decoder which was not actually used for any stream.\nStream mapping:\n  Stream #0:0 -> #0:0 (h264 (native) -> vp9 (libvpx-vp9))\nPress [q] to stop, [?] for help\n[libvpx-vp9 @ 000001e292935580] v1.15.2-100-g40561f514\nOutput #0, webm, to 'C:\\Users\\Peter\\Desktop\\stuff\\MIUN\\quantitative_research\\video_compression\\compressed_videos\\BVI-HD\\vp9\\12\\Typing_1920x1080_60fps_vp9.webm':\n  Metadata:\n    major_brand     : isom\n    minor_version   : 512\n    compatible_brands: isomiso2avc1mp41\n    encoder         : Lavf62.3.100\n  Stream #0:0(und): Video: vp9, yuv420p(tv, progressive), 1920x1080, q=2-31, 12000 kb/s, 60 fps, 1k tbn (default)\n    Metadata:\n      encoder         : Lavc62.11.100 libvpx-vp9\n      handler_name    : VideoHandler\n      vendor_id       : [0][0][0][0]\n    Side data:\n      cpb: bitrate max/min/avg: 0/0/0 buffer size: 12000000 vbv_delay: N/A\nframe=    0 fps=0.0 q=0.0 size=       0KiB time=N/A bitrate=N/A speed=N/A elapsed=0:00:00.52    \nframe=    6 fps=5.8 q=23.0 size=       1KiB time=00:00:00.10 bitrate=  50.6kbits/s speed=0.0968x elapsed=0:00:01.03    \nframe=   11 fps=7.0 q=20.0 size=       1KiB time=00:00:00.18 bitrate=  27.6kbits/s speed=0.117x elapsed=0:00:01.57    \nframe=   15 fps=7.1 q=20.0 size=       1KiB time=00:00:00.25 bitrate=  20.3kbits/s speed=0.118x elapsed=0:00:02.11    \nframe=   19 fps=7.2 q=20.0 size=       1KiB time=00:00:00.31 bitrate=  16.0kbits/s speed=0.12x elapsed=0:00:02.64    \nframe=   23 fps=7.3 q=20.0 size=       1KiB time=00:00:00.38 bitrate=  13.2kbits/s speed=0.121x elapsed=0:00:03.16    \nframe=   27 fps=7.3 q=20.0 size=       1KiB time=00:00:00.45 bitrate=  11.3kbits/s speed=0.122x elapsed=0:00:03.68    \nframe=   31 fps=7.3 q=20.0 size=       1KiB time=00:00:00.51 bitrate=   9.8kbits/s speed=0.122x elapsed=0:00:04.22    \nframe=   35 fps=7.4 q=19.0 size=       1KiB time=00:00:00.58 bitrate=   8.7kbits/s speed=0.123x elapsed=0:00:04.74    \nframe=   38 fps=7.2 q=17.0 size=       1KiB time=00:00:00.63 bitrate=   8.0kbits/s speed=0.12x elapsed=0:00:05.26    \nframe=   42 fps=7.3 q=18.0 size=       1KiB time=00:00:00.70 bitrate=   7.2kbits/s speed=0.121x elapsed=0:00:05.78    \nframe=   46 fps=7.3 q=17.0 size=       1KiB time=00:00:00.76 bitrate=   6.6kbits/s speed=0.121x elapsed=0:00:06.31    \nframe=   49 fps=7.2 q=7.0 size=       1KiB time=00:00:00.80 bitrate=   6.3kbits/s speed=0.117x elapsed=0:00:06.83    \nframe=   53 fps=7.2 q=17.0 size=       1KiB time=00:00:00.88 bitrate=   5.7kbits/s speed=0.12x elapsed=0:00:07.37    \nframe=   57 fps=7.2 q=18.0 size=       1KiB time=00:00:00.95 bitrate=   5.3kbits/s speed=0.12x elapsed=0:00:07.90    \nframe=   60 fps=7.1 q=18.0 size=       1KiB time=00:00:01.00 bitrate=   5.1kbits/s speed=0.118x elapsed=0:00:08.44    \nframe=   65 fps=7.2 q=17.0 size=       1KiB time=00:00:01.08 bitrate=   4.7kbits/s speed=0.121x elapsed=0:00:08.97    \nframe=   69 fps=7.3 q=19.0 size=       1KiB time=00:00:01.15 bitrate=   4.4kbits/s speed=0.121x elapsed=0:00:09.50    \nframe=   72 fps=7.2 q=19.0 size=       1KiB time=00:00:01.20 bitrate=   4.2kbits/s speed=0.12x elapsed=0:00:10.03    \nframe=   76 fps=7.2 q=18.0 size=       1KiB time=00:00:01.26 bitrate=   4.0kbits/s speed=0.12x elapsed=0:00:10.55    \nframe=   80 fps=7.2 q=17.0 size=       1KiB time=00:00:01.33 bitrate=   3.8kbits/s speed=0.12x elapsed=0:00:11.07    \nframe=   84 fps=7.2 q=19.0 size=       1KiB time=00:00:01.40 bitrate=   3.6kbits/s speed=0.121x elapsed=0:00:11.60    \nframe=   88 fps=7.3 q=18.0 size=       1KiB time=00:00:01.46 bitrate=   3.5kbits/s speed=0.121x elapsed=0:00:12.13    \nframe=   92 fps=7.3 q=19.0 size=       1KiB time=00:00:01.53 bitrate=   3.3kbits/s speed=0.121x elapsed=0:00:12.65    \nframe=   96 fps=7.3 q=18.0 size=       1KiB time=00:00:01.60 bitrate=   3.2kbits/s speed=0.122x elapsed=0:00:13.16    \nframe=   99 fps=7.2 q=18.0 size=       1KiB time=00:00:01.65 bitrate=   3.1kbits/s speed=0.12x elapsed=0:00:13.70    \nframe=  104 fps=7.3 q=18.0 size=       1KiB time=00:00:01.73 bitrate=   2.9kbits/s speed=0.122x elapsed=0:00:14.23    \nframe=  108 fps=7.3 q=18.0 size=       1KiB time=00:00:01.80 bitrate=   2.8kbits/s speed=0.122x elapsed=0:00:14.78    \nframe=  111 fps=7.2 q=20.0 size=       1KiB time=00:00:01.85 bitrate=   2.7kbits/s speed=0.121x elapsed=0:00:15.32    \nframe=  115 fps=7.3 q=19.0 size=       1KiB time=00:00:01.91 bitrate=   2.6kbits/s speed=0.121x elapsed=0:00:15.84    \nframe=  119 fps=7.3 q=8.0 size=       1KiB time=00:00:01.98 bitrate=   2.6kbits/s speed=0.121x elapsed=0:00:16.35    \nframe=  123 fps=7.3 q=18.0 size=       1KiB time=00:00:02.05 bitrate=   2.5kbits/s speed=0.122x elapsed=0:00:16.87    \nframe=  127 fps=7.3 q=19.0 size=       1KiB time=00:00:02.11 bitrate=   2.4kbits/s speed=0.122x elapsed=0:00:17.42    \nframe=  131 fps=7.3 q=19.0 size=    2560KiB time=00:00:02.18 bitrate=9605.3kbits/s speed=0.122x elapsed=0:00:17.94    \nframe=  136 fps=7.4 q=19.0 size=    2560KiB time=00:00:02.26 bitrate=9252.1kbits/s speed=0.123x elapsed=0:00:18.46    \nframe=  140 fps=7.4 q=8.0 size=    2560KiB time=00:00:02.33 bitrate=8987.8kbits/s speed=0.123x elapsed=0:00:18.98    \nframe=  144 fps=7.4 q=17.0 size=    2560KiB time=00:00:02.40 bitrate=8738.1kbits/s speed=0.123x elapsed=0:00:19.53    \nframe=  149 fps=7.4 q=18.0 size=    2560KiB time=00:00:02.48 bitrate=8444.9kbits/s speed=0.124x elapsed=0:00:20.04    \nframe=  153 fps=7.4 q=16.0 size=    2560KiB time=00:00:02.55 bitrate=8224.1kbits/s speed=0.124x elapsed=0:00:20.58    \nframe=  157 fps=7.4 q=17.0 size=    2560KiB time=00:00:02.61 bitrate=8014.6kbits/s speed=0.124x elapsed=0:00:21.11    \nframe=  161 fps=7.4 q=17.0 size=    2560KiB time=00:00:02.68 bitrate=7815.5kbits/s speed=0.124x elapsed=0:00:21.63    \nframe=  165 fps=7.4 q=17.0 size=    2560KiB time=00:00:02.75 bitrate=7626.0kbits/s speed=0.124x elapsed=0:00:22.16    \nframe=  169 fps=7.4 q=17.0 size=    2560KiB time=00:00:02.81 bitrate=7445.5kbits/s speed=0.124x elapsed=0:00:22.69    \nframe=  174 fps=7.5 q=17.0 size=    2560KiB time=00:00:02.90 bitrate=7231.6kbits/s speed=0.125x elapsed=0:00:23.21    \nframe=  177 fps=7.5 q=17.0 size=    2560KiB time=00:00:02.95 bitrate=7109.0kbits/s speed=0.124x elapsed=0:00:23.75    \nframe=  181 fps=7.5 q=17.0 size=    2560KiB time=00:00:03.01 bitrate=6951.9kbits/s speed=0.124x elapsed=0:00:24.27    \nframe=  186 fps=7.5 q=18.0 size=    2560KiB time=00:00:03.10 bitrate=6765.0kbits/s speed=0.125x elapsed=0:00:24.79    \nframe=  189 fps=7.5 q=18.0 size=    2560KiB time=00:00:03.15 bitrate=6657.6kbits/s speed=0.124x elapsed=0:00:25.31    \nframe=  194 fps=7.5 q=18.0 size=    2560KiB time=00:00:03.23 bitrate=6486.0kbits/s speed=0.125x elapsed=0:00:25.84    \nframe=  198 fps=7.5 q=18.0 size=    2560KiB time=00:00:03.30 bitrate=6355.0kbits/s speed=0.125x elapsed=0:00:26.38    \nframe=  201 fps=7.5 q=18.0 size=    2560KiB time=00:00:03.35 bitrate=6260.2kbits/s speed=0.124x elapsed=0:00:26.91    \nframe=  206 fps=7.5 q=18.0 size=    2560KiB time=00:00:03.43 bitrate=6108.2kbits/s speed=0.125x elapsed=0:00:27.42    \nframe=  210 fps=7.5 q=18.0 size=    2560KiB time=00:00:03.50 bitrate=5991.9kbits/s speed=0.125x elapsed=0:00:27.96    \nframe=  213 fps=7.5 q=19.0 size=    2560KiB time=00:00:03.55 bitrate=5907.5kbits/s speed=0.125x elapsed=0:00:28.48    \nframe=  218 fps=7.5 q=18.0 size=    2560KiB time=00:00:03.63 bitrate=5772.0kbits/s speed=0.125x elapsed=0:00:29.00    \nframe=  222 fps=7.5 q=18.0 size=    2560KiB time=00:00:03.70 bitrate=5668.0kbits/s speed=0.125x elapsed=0:00:29.55    \nframe=  226 fps=7.5 q=17.0 size=    2560KiB time=00:00:03.76 bitrate=5567.7kbits/s speed=0.125x elapsed=0:00:30.09    \nframe=  230 fps=7.5 q=18.0 size=    2560KiB time=00:00:03.83 bitrate=5470.8kbits/s speed=0.125x elapsed=0:00:30.63    \nframe=  234 fps=7.5 q=17.0 size=    2560KiB time=00:00:03.90 bitrate=5377.3kbits/s speed=0.125x elapsed=0:00:31.14    \nframe=  237 fps=7.5 q=20.0 size=    2560KiB time=00:00:03.95 bitrate=5309.2kbits/s speed=0.125x elapsed=0:00:31.68    \nframe=  242 fps=7.5 q=18.0 size=    2560KiB time=00:00:04.03 bitrate=5199.6kbits/s speed=0.125x elapsed=0:00:32.22    \nframe=  246 fps=7.5 q=8.0 size=    2560KiB time=00:00:04.10 bitrate=5115.0kbits/s speed=0.125x elapsed=0:00:32.76    \nframe=  250 fps=7.5 q=17.0 size=    2560KiB time=00:00:04.16 bitrate=5033.2kbits/s speed=0.125x elapsed=0:00:33.31    \nframe=  254 fps=7.5 q=18.0 size=    2560KiB time=00:00:04.23 bitrate=4953.9kbits/s speed=0.125x elapsed=0:00:33.83    \nframe=  258 fps=7.5 q=18.0 size=    5376KiB time=00:00:04.30 bitrate=10241.9kbits/s speed=0.125x elapsed=0:00:34.35    \nframe=  264 fps=7.6 q=17.0 size=    5376KiB time=00:00:04.40 bitrate=10009.1kbits/s speed=0.126x elapsed=0:00:34.88    \nframe=  268 fps=7.6 q=18.0 size=    5376KiB time=00:00:04.46 bitrate=9859.7kbits/s speed=0.126x elapsed=0:00:35.41    \nframe=  272 fps=7.6 q=18.0 size=    5376KiB time=00:00:04.53 bitrate=9714.7kbits/s speed=0.126x elapsed=0:00:35.95    \nframe=  276 fps=7.6 q=17.0 size=    5376KiB time=00:00:04.60 bitrate=9574.0kbits/s speed=0.126x elapsed=0:00:36.46    \nframe=  276 fps=7.5 q=17.0 size=    5376KiB time=00:00:04.60 bitrate=9574.0kbits/s speed=0.124x elapsed=0:00:36.97    \nframe=  276 fps=7.4 q=17.0 size=    5376KiB time=00:00:04.60 bitrate=9574.0kbits/s speed=0.123x elapsed=0:00:37.50    \nframe=  276 fps=7.3 q=17.0 size=    5376KiB time=00:00:04.60 bitrate=9574.0kbits/s speed=0.121x elapsed=0:00:38.03    \nframe=  276 fps=7.2 q=17.0 size=    5376KiB time=00:00:04.60 bitrate=9574.0kbits/s speed=0.119x elapsed=0:00:38.56    \nframe=  276 fps=7.1 q=17.0 size=    5376KiB time=00:00:04.60 bitrate=9574.0kbits/s speed=0.118x elapsed=0:00:39.09    \n[out#0/webm @ 000001e2923d0d80] video:6532KiB audio:0KiB subtitle:0KiB other streams:0KiB global headers:0KiB muxing overhead: 0.044792%\nframe=  300 fps=7.6 q=18.0 Lsize=    6535KiB time=00:00:05.00 bitrate=10706.8kbits/s speed=0.126x elapsed=0:00:39.59    \n",
  "seconds": 39.880356550216675,
  "probe_out": {}
}